Coordinates
version=1
nRows=14
nColumns=36
inDegrees=yes

Units are S.I. units (second, meters, Newtons, ...)
If the header above contains a line with 'inDegrees', this indicates whether rotational values are in degrees (yes) or radians (no).

endheader
time	pelvis_tilt	pelvis_list	pelvis_rotation	pelvis_tx	pelvis_ty	pelvis_tz	hip_flexion_r	hip_adduction_r	hip_rotation_r	knee_angle_r	knee_angle_r_beta	ankle_angle_r	subtalar_angle_r	mtp_angle_r	hip_flexion_l	hip_adduction_l	hip_rotation_l	knee_angle_l	knee_angle_l_beta	ankle_angle_l	subtalar_angle_l	mtp_angle_l	lumbar_extension	lumbar_bending	lumbar_rotation	arm_flex_r	arm_add_r	arm_rot_r	elbow_flex_r	pro_sup_r	arm_flex_l	arm_add_l	arm_rot_l	elbow_flex_l	pro_sup_l
     14.96666670	      2.84651698	     -0.96917083	      0.32145827	      0.82190701	      0.80553535	      0.68192534	     22.68761011	      0.03384156	     -2.44765997	     24.70582066	      0.43119791	      1.51192163	    -15.07926925	     -7.49999987	     -8.51232635	      1.24458579	      9.16986603	      7.61428197	      0.13289429	     14.67847424	     -7.63129147	     -7.49999987	     -9.76257147	      0.76068488	     -7.84658205	      1.91103335	    -10.16352015	     -1.80995968	     13.73932147	     95.16680722	     20.06380162	    -15.53972675	      7.50254906	     20.43011120	     90.80156079
     14.98333330	      2.21239777	     -0.83930141	      0.75249894	      0.82296989	      0.80526414	      0.68264541	     23.62354291	     -0.39876136	     -1.91942077	     18.39275476	      0.32101413	      0.01391254	    -14.88151243	     -7.49999987	     -8.87241301	      1.36198876	      9.37663100	      7.98398888	      0.13934689	     15.64786402	     -8.05412351	     -7.49999987	     -9.46071425	      0.74510639	     -8.79567425	      1.42921848	    -10.27866582	     -3.64461680	     12.88672192	     95.45713365	     20.92942632	    -16.44693645	      7.94346017	     22.63488242	     91.64391836
     15.00000000	      1.81255982	     -0.70145425	      1.17869521	      0.82564733	      0.80430823	      0.68361317	     23.97579080	     -0.84941950	     -1.57546994	     11.96887587	      0.20889629	     -1.00301803	    -14.05479046	     -7.49999987	     -9.66260280	      1.41532151	      9.35547257	      8.25554771	      0.14408649	     16.54162702	     -7.94067328	     -7.49999987	     -9.20038620	      0.75127548	     -9.83522435	      0.89744252	    -10.44328461	     -5.98291649	     12.18489676	     96.20573011	     21.38775199	    -17.31329579	      8.13024823	     24.58228308	     92.52773844
     15.01666670	      1.58391962	     -0.51881351	      1.53714104	      0.82873569	      0.80139501	      0.68453811	     24.05552741	     -1.33292909	     -1.35759163	      6.28593053	      0.10971018	     -0.84667147	    -12.40888490	     -7.49999987	    -10.87971598	      1.46147969	      9.48993724	      8.40987297	      0.14677997	     17.14416603	     -7.96494236	     -7.49999987	     -8.83622768	      0.69710876	    -10.59438249	      0.04544043	    -10.83625058	     -6.70630813	     11.89315095	     95.57800557	     21.85431588	    -17.77942139	      7.97173374	     25.55427564	     91.80181404
     15.03333330	      1.19537161	     -0.32080923	      1.70809665	      0.83333951	      0.79653981	      0.68622922	     24.45529187	     -1.74803485	     -1.08402967	      2.23097207	      0.03893781	      0.42102494	    -10.34731940	     -7.49999987	    -12.00452205	      1.47117821	      9.42972318	      8.82051073	      0.15394695	     17.90802510	     -7.75718549	     -7.49999987	     -8.13541706	      0.56259405	    -10.99929453	     -0.77034415	    -10.87981367	    -12.66143673	     11.30617596	    101.72315472	     21.63087398	    -18.20060443	      7.04521335	     27.53028853	     94.85111247
     15.05000000	      0.27410575	     -0.21223497	      1.64785973	      0.83932310	      0.79087745	      0.68893439	     25.90215442	     -1.92115855	     -0.74097886	      0.79078830	      0.01380186	      2.50940562	     -8.53229534	     -7.49999987	    -12.42182426	      1.39469351	      9.16174359	      9.85353513	      0.17197663	     18.80299863	     -7.67764935	     -7.49999987	     -6.57549324	      0.40803423	    -10.99365815	     -1.91479444	    -11.30781103	    -12.92275341	     10.77721993	    101.74655585	     21.28111018	    -18.38177059	      7.02026040	     28.55729797	     94.76616715
     15.06666670	     -0.55592705	     -0.56748414	      1.77225765	      0.84507106	      0.78666273	      0.69126726	     26.93589140	     -1.53136384	     -0.80095669	      0.61727172	      0.01077342	      4.12188116	     -7.29414757	     -7.49999987	    -12.71278623	      0.74622656	      8.70514538	     11.46435513	      0.20009074	     19.66979123	     -7.47890050	     -7.49999987	     -5.00630415	      0.78319171	    -11.23070493	     -3.03617174	    -11.75398027	    -13.20909242	     10.37272069	    101.77641667	     20.53626697	    -18.40937213	      6.86266092	     29.31882756	     94.64165176
     15.08333330	     -0.80717871	     -1.41631086	      2.15012363	      0.84894134	      0.78571431	      0.69232458	     26.69866024	     -0.53066633	     -1.25072304	      0.88041525	      0.01536614	      4.21513601	     -7.23887193	     -7.49999987	    -13.46482062	     -0.51381336	      8.20454249	     13.24817362	      0.23122425	     19.79759194	     -7.56732478	     -7.49999987	     -4.06070688	      1.69793218	    -11.57172988	     -3.99666214	    -12.21514300	    -13.32482224	     10.04942516	    101.72007451	     19.83116493	    -18.14332678	      6.80285303	     29.53585658	     94.53556012
     15.10000000	     -0.95183323	     -2.42231606	      2.62536032	      0.85189158	      0.78691642	      0.69288354	     26.28322211	      0.71342388	     -2.50695395	      2.27490746	      0.03970463	      3.58373994	     -7.23686424	     -7.49999987	    -14.06271460	     -2.00178973	      7.50304274	     15.21365372	      0.26552835	     19.28533105	     -7.19519595	     -7.49999987	     -3.20671776	      2.79088691	    -12.81612338	     -4.21265463	    -12.77105832	    -12.47592828	      9.16225935	    102.59893054	     18.09386995	    -17.88921939	      4.53915255	     30.47090128	     93.94669888
     15.11666670	     -0.93524616	     -3.30832044	      2.82292182	      0.85553287	      0.78788530	      0.69404110	     26.15063841	      1.95520544	     -3.70984653	      5.15345811	      0.08994481	      2.50191048	     -7.73271514	     -7.49999987	    -14.59782215	     -3.30162238	      6.68112174	     17.50069788	      0.30544480	     17.78534248	     -7.04632932	     -7.49999987	     -2.52743537	      3.77583137	    -13.27137936	     -4.51740982	    -13.25518430	    -11.70364699	      8.71646521	    102.14400086	     17.12331245	    -17.54142952	      4.32864892	     30.20081027	     93.50957764
     15.13333330	     -1.05618887	     -4.18655941	      2.80463070	      0.85940495	      0.78751076	      0.69505729	     26.33724298	      3.15753645	     -4.86399070	      8.45751629	      0.14761151	      1.76120324	     -7.62803751	     -7.49999987	    -14.62231039	     -4.54222698	      5.73373141	     20.38747146	      0.35582850	     15.55940450	     -6.66472013	     -7.49999987	     -1.68360486	      4.84343334	    -13.62651721	     -4.47417186	    -13.68971766	    -10.64935284	      8.33636188	    101.65148748	     16.02242773	    -17.01517113	      3.78475278	     29.69556566	     93.19192942
     15.15000000	     -1.16122395	     -4.96578670	      2.58862334	      0.86136672	      0.78681712	      0.69564557	     26.42027464	      4.29723471	     -5.15898913	     11.43225003	      0.19953040	      1.10611160	     -8.13639540	     -7.49999987	    -14.22494344	     -5.64250853	      4.72711000	     23.88397821	      0.41685406	     12.44247430	     -6.28934704	     -7.49999987	     -0.98057149	      5.83834776	    -13.79269407	     -4.30436273	    -14.24861646	     -9.88659785	      8.38480550	    101.52536788	     15.07830140	    -16.37094507	      2.94226705	     28.91075321	     93.42276126
     15.16666670	     -1.29316166	     -5.75251185	      2.23486997	      0.86158963	      0.78715459	      0.69663193	     26.27710835	      5.46236948	     -5.17049156	     13.87662109	      0.24219273	      1.17476941	     -8.35725042	     -7.49999987	    -13.24301649	     -6.79544960	      3.51266664	     28.06996297	      0.48991327	      8.61017936	     -5.47651605	     -7.49999987	     -0.43577203	      6.95174047	    -13.84710506	     -3.84632550	    -15.02383435	     -9.02693466	      8.56853398	    101.26468012	     14.10275054	    -15.68414195	      2.29902439	     28.09480959	     93.50058973
     15.18333330	     -1.45911430	     -6.45466292	      1.85815965	      0.86169868	      0.78917989	      0.69866068	     25.87788789	      6.56832871	     -4.99816538	     15.77945487	      0.27540344	      1.87460857	     -8.42152391	     -7.49999987	    -11.56463041	     -7.93900614	      2.40956033	     32.91332232	      0.57444584	      4.19051102	     -4.56186955	     -7.49999987	      0.09847440	      7.91032996	    -13.66880039	     -3.22301332	    -15.69800156	     -8.48136552	      8.32304513	    100.96109476	     13.44677998	    -14.89873939	      1.97721157	     26.66787877	     93.34667866
